<svg width="1400" height="420" viewBox="0 0 1400 420" fill="none" xmlns="http://www.w3.org/2000/svg">
  <defs>
    <linearGradient id="g1" x1="70" y1="60" x2="320" y2="340" gradientUnits="userSpaceOnUse">
      <stop stop-color="#6EE7FF"/>
      <stop offset="1" stop-color="#4F46E5"/>
    </linearGradient>
    <linearGradient id="g2" x1="0" y1="0" x2="1" y2="1">
      <stop stop-color="#FFFFFF" stop-opacity="0.95"/>
      <stop offset="1" stop-color="#D8E0F5" stop-opacity="0.95"/>
    </linearGradient>
    <filter id="blurGlow" x="0" y="0" width="420" height="420" filterUnits="userSpaceOnUse" color-interpolation-filters="sRGB">
      <feGaussianBlur stdDeviation="18" result="b"/>
      <feMerge>
        <feMergeNode in="b"/>
        <feMergeNode in="SourceGraphic"/>
      </feMerge>
    </filter>
  </defs>

  <rect width="1400" height="420" rx="28" fill="#0B1220"/>

  <g filter="url(#blurGlow)">
    <rect x="55" y="55" width="310" height="310" rx="72" fill="url(#g1)" fill-opacity="0.18"/>
    <path d="M155 128H265C289.301 128 309 147.699 309 172V172C309 196.301 289.301 216 265 216H178C164.745 216 154 226.745 154 240V240C154 253.255 164.745 264 178 264H309"
          stroke="url(#g2)" stroke-width="24" stroke-linecap="round" stroke-linejoin="round"/>
    <circle cx="120" cy="104" r="9" fill="#8DF3FF"/>
    <circle cx="299" cy="320" r="7" fill="#8D93FF"/>
  </g>

  <text x="420" y="190" fill="#F6F8FF" font-size="78" font-family="Inter, Segoe UI, Arial, sans-serif" font-weight="800" letter-spacing="1.5">COSTAS</text>
  <text x="420" y="262" fill="#9FB0D3" font-size="50" font-family="Inter, Segoe UI, Arial, sans-serif" font-weight="600" letter-spacing="6">DIGITAL</text>
  <text x="420" y="315" fill="#6EE7FF" font-size="24" font-family="Inter, Segoe UI, Arial, sans-serif" font-weight="500" letter-spacing="2.5">MARKETING SYSTEMS FOR REVENUE</text>
</svg>