<svg width="512" height="512" viewBox="0 0 512 512" fill="none" xmlns="http://www.w3.org/2000/svg">
  <defs>
    <linearGradient id="bg" x1="40" y1="40" x2="472" y2="472" gradientUnits="userSpaceOnUse">
      <stop stop-color="#0B132B"/>
      <stop offset="1" stop-color="#111827"/>
    </linearGradient>
    <linearGradient id="earth" x1="140" y1="110" x2="360" y2="340" gradientUnits="userSpaceOnUse">
      <stop stop-color="#67E8F9"/>
      <stop offset="1" stop-color="#22C55E"/>
    </linearGradient>
    <linearGradient id="arrow" x1="272" y1="176" x2="380" y2="332" gradientUnits="userSpaceOnUse">
      <stop stop-color="#F8FAFC"/>
      <stop offset="1" stop-color="#BFDBFE"/>
    </linearGradient>
  </defs>

  <rect width="512" height="512" rx="96" fill="url(#bg)"/>

  <circle cx="226" cy="230" r="126" fill="url(#earth)" fill-opacity="0.2" stroke="#A5F3FC" stroke-width="5"/>
  <path d="M124 232H328M226 104V356" stroke="#A5F3FC" stroke-opacity="0.7" stroke-width="4"/>
  <ellipse cx="226" cy="230" rx="126" ry="54" stroke="#A5F3FC" stroke-opacity="0.55" stroke-width="4"/>
  <ellipse cx="226" cy="230" rx="70" ry="126" stroke="#A5F3FC" stroke-opacity="0.45" stroke-width="4"/>

  <path d="M286 178L374 260L330 270L354 330L322 344L300 286L258 314L286 178Z" fill="url(#arrow)" stroke="#E2E8F0" stroke-width="4" stroke-linejoin="round"/>
  <circle cx="332" cy="276" r="8" fill="#FDE68A"/>

  <path d="M392 164C422 184 422 328 392 348" stroke="#FB7185" stroke-width="7" stroke-linecap="round"/>
  <path d="M416 146C454 174 454 338 416 366" stroke="#F59E0B" stroke-width="7" stroke-linecap="round"/>
  <path d="M440 126C486 162 486 350 440 386" stroke="#22D3EE" stroke-width="7" stroke-linecap="round"/>
</svg>