<svg width="512" height="512" viewBox="0 0 512 512" fill="none" xmlns="http://www.w3.org/2000/svg">
  <defs>
    <linearGradient id="bg" x1="40" y1="40" x2="472" y2="472" gradientUnits="userSpaceOnUse">
      <stop stop-color="#0B132B"/>
      <stop offset="1" stop-color="#111827"/>
    </linearGradient>
    <linearGradient id="earth" x1="140" y1="110" x2="360" y2="340" gradientUnits="userSpaceOnUse">
      <stop stop-color="#67E8F9"/>
      <stop offset="1" stop-color="#22C55E"/>
    </linearGradient>
  </defs>

  <rect width="512" height="512" rx="96" fill="url(#bg)"/>

  <circle cx="226" cy="230" r="126" fill="url(#earth)" fill-opacity="0.2" stroke="#A5F3FC" stroke-width="5"/>
  <path d="M124 232H328M226 104V356" stroke="#A5F3FC" stroke-opacity="0.7" stroke-width="4"/>
  <ellipse cx="226" cy="230" rx="126" ry="54" stroke="#A5F3FC" stroke-opacity="0.55" stroke-width="4"/>
  <ellipse cx="226" cy="230" rx="70" ry="126" stroke="#A5F3FC" stroke-opacity="0.45" stroke-width="4"/>

  <rect x="280" y="170" width="110" height="170" rx="55" fill="#0F172A" stroke="#E2E8F0" stroke-width="6"/>
  <line x1="335" y1="171" x2="335" y2="338" stroke="#334155" stroke-width="4"/>
  <circle cx="315" cy="210" r="8" fill="#38BDF8"/>
  <circle cx="355" cy="210" r="8" fill="#22D3EE"/>

  <path d="M408 190C426 202 426 308 408 320" stroke="#FB7185" stroke-width="6" stroke-linecap="round"/>
  <path d="M426 172C452 192 452 318 426 338" stroke="#F59E0B" stroke-width="6" stroke-linecap="round"/>

  <circle cx="120" cy="120" r="6" fill="#FDE68A"/>
  <circle cx="412" cy="92" r="5" fill="#93C5FD"/>
  <circle cx="88" cy="392" r="5" fill="#86EFAC"/>
</svg>